<svg width="102" height="102" viewBox="0 0 102 102" fill="none" xmlns="http://www.w3.org/2000/svg">
<path d="M84.4614 88.8152L84.4609 88.8156C75.5535 96.7089 63.844 101.5 51 101.5C38.1762 101.5 26.4662 96.709 17.5382 88.8348C7.07987 79.5691 0.5 66.0502 0.5 51C0.5 23.1057 23.1057 0.5 51 0.5C78.8943 0.5 101.5 23.1057 101.5 51C101.5 66.0507 94.9197 79.5696 84.4614 88.8152Z" fill="white" stroke="black"/>
<path d="M78.9822 85.4302C76.5208 83.6336 72.0524 80.6516 67.1864 78.4476C62.3205 76.262 59.4615 71.1315 60.2377 65.964C60.2377 65.8899 60.2567 65.8158 60.2756 65.7232C60.2756 65.7232 71.3519 58.3886 69.8182 51.2393C69.8182 51.2393 70.159 51.2578 70.6702 51.2208C75.5552 50.7762 75.8581 43.6639 71.03 42.9045C70.9921 42.9045 70.9353 42.886 70.8975 42.886L70.746 42.1081C72.2228 37.0517 75.8202 21.7343 64.9333 23.216C64.9333 23.216 57.1137 10.5658 40.5845 16.6594C24.0364 22.7345 28.3533 37.2369 28.3533 37.2369L30.3981 43.0157C25.9487 44.0899 26.3652 50.8133 31.0987 51.2393C31.6099 51.2763 31.9696 51.2578 31.9696 51.2578C30.4171 58.4072 41.4933 65.7417 41.4933 65.7417C41.5122 65.8343 41.5123 65.9084 41.5312 65.9825C42.2885 71.15 39.4295 76.2805 34.5825 78.4661C29.6976 80.6702 25.2481 83.6707 22.7868 85.4488C21.3099 86.5045 20.0035 87.7825 19 89.2827C27.5202 96.5988 38.6722 101.062 50.8845 101.062C63.1157 101.062 74.2677 96.5988 82.75 89.2457C81.7654 87.764 80.459 86.486 78.9822 85.4302Z" fill="#CACACA"/>
<g clip-path="url(#clip0)">
<path d="M85.9929 87.0169C85.9821 86.8108 85.8064 86.6526 85.6003 86.6634L82.2879 86.837C81.67 86.8686 81.143 86.3943 81.11 85.7764L80.5614 75.3086C80.5296 74.6907 81.0041 74.1638 81.622 74.1307L91.3437 73.6212C91.9615 73.5896 92.4884 74.0639 92.5215 74.6818L92.6951 77.9942C92.7059 78.2003 92.8817 78.3585 93.0878 78.3477C93.2937 78.3369 93.4521 78.1611 93.4413 77.9551L93.2677 74.6427C93.2125 73.613 92.3344 72.8223 91.3046 72.8751L81.5827 73.3846C80.5531 73.4397 79.7624 74.3179 79.8152 75.3477L80.3638 85.8155C80.4189 86.8452 81.2971 87.6359 82.3268 87.5831L85.6394 87.4095C85.8455 87.3987 86.0037 87.2229 85.9929 87.0169Z" fill="black"/>
<path d="M94.8661 86.7776C95.4874 86.0876 95.4317 85.0247 94.7417 84.4034L87.7372 78.0965C87.6892 78.0533 87.6309 78.0233 87.5679 78.0094L84.3622 77.2997C84.2308 77.2705 84.0939 77.3144 84.0038 77.4144C83.9137 77.5145 83.8844 77.6551 83.9271 77.7828L84.9681 80.8968C84.9885 80.958 85.0244 81.0128 85.0724 81.056L92.0771 87.3628C92.7675 87.983 93.8295 87.9274 94.4513 87.2384L94.8661 86.7776ZM87.5373 78.9221L93.2701 84.0838L91.6054 85.9326L85.8726 80.7708L87.5373 78.9221ZM86.8147 78.6081L85.4846 80.0851L84.845 78.1719L86.8147 78.6081ZM92.577 86.8076L92.1606 86.4327L93.8254 84.5837L94.2418 84.9588C94.6251 85.3038 94.656 85.8943 94.3109 86.2776L93.8961 86.7385C93.5506 87.1212 92.9605 87.1521 92.577 86.8076Z" fill="black"/>
</g>
<defs>
<clipPath id="clip0">
<rect width="15" height="15" fill="white" transform="translate(94.6782 72.6982) rotate(87)"/>
</clipPath>
</defs>
</svg>
