<svg width="477" height="403" viewBox="0 0 477 403" fill="none" xmlns="http://www.w3.org/2000/svg">
<g clip-path="url(#clip0)">
<path d="M388.479 194.502C388.479 200.165 388.241 205.771 387.766 211.319C387.391 215.65 386.88 219.941 386.233 224.195C385.545 228.697 384.702 233.146 383.704 237.541V237.546C383.051 240.439 382.335 243.307 381.554 246.152C379.289 254.423 376.472 262.532 373.122 270.424C372.393 272.141 371.641 273.847 370.866 275.54C367.931 281.954 364.645 288.2 361.022 294.251C350.863 311.243 338.182 326.589 323.414 339.762C321.815 341.185 320.195 342.585 318.553 343.961C283.684 373.128 239.674 389.075 194.239 389.005C86.9626 389.005 0 301.925 0 194.502C0 87.0803 86.9626 -0.000125305 194.239 -0.000125305C238.11 -0.0693921 280.7 14.8003 315.017 42.1674C316.625 43.4438 318.214 44.749 319.782 46.0828C327.434 52.5813 334.575 59.6597 341.143 67.2552H341.148C371.738 102.565 388.548 147.758 388.479 194.502Z" fill="#F2F2F2"/>
<path d="M57.3391 228.1C38.8355 217.073 24.8698 196.463 26.6829 174.978C43.5997 191.191 65.6982 200.889 89.0686 202.358C98.0837 202.891 108.166 202.545 114.802 208.678C118.931 212.494 120.853 218.24 121.169 223.858C121.484 229.476 120.36 235.064 119.242 240.578L119.627 241.929C98.0941 242.01 75.8427 239.128 57.3391 228.1Z" fill="#E6E6E6"/>
<path d="M27.1343 174.955C34.5482 191.185 46.8806 204.663 62.3798 213.475C65.7117 215.342 69.2541 216.947 73.0185 217.691C76.6933 218.388 80.4875 218.087 84.0068 216.819C87.312 215.703 90.5638 214.178 94.0823 213.886C97.7911 213.578 101.225 215.01 103.922 217.52C107.223 220.59 109.225 224.665 111.044 228.718C113.064 233.218 115.092 237.925 118.965 241.161C119.434 241.553 118.799 242.259 118.331 241.868C111.592 236.237 110.492 226.808 105.105 220.177C102.591 217.083 99.1315 214.728 95.0211 214.79C91.4268 214.845 88.0722 216.414 84.7354 217.573C81.2317 218.79 77.7218 219.362 74.0228 218.827C70.239 218.279 66.6265 216.81 63.2615 215.036C55.6608 210.956 48.748 205.705 42.7763 199.474C35.9215 192.402 30.3255 184.207 26.2303 175.245C25.977 174.69 26.8827 174.404 27.1343 174.955H27.1343Z" fill="white"/>
<path d="M57.2225 210.932C55.393 213.335 52.77 215.009 49.8219 215.654C46.8738 216.299 43.7925 215.875 41.1284 214.455C40.5904 214.166 41.0137 213.315 41.5524 213.605C44.0308 214.931 46.9011 215.327 49.6451 214.72C52.3892 214.113 54.8263 212.544 56.5166 210.296C56.8845 209.808 57.5883 210.446 57.2225 210.932L57.2225 210.932Z" fill="white"/>
<path d="M82.4051 217.606C81.6351 211.477 78.5865 205.864 73.8671 201.885C73.3992 201.492 74.0341 200.785 74.5015 201.179C79.4048 205.328 82.5655 211.175 83.3528 217.555C83.4274 218.163 82.4793 218.211 82.4051 217.606V217.606Z" fill="white"/>
<path d="M37.0986 191.956C38 191.173 38.6932 190.179 39.1161 189.063C39.5389 187.946 39.6782 186.741 39.5213 185.558C39.439 184.951 40.3873 184.904 40.469 185.507C40.6363 186.816 40.4808 188.146 40.0164 189.381C39.5519 190.615 38.7925 191.718 37.8045 192.591C37.7183 192.681 37.601 192.735 37.4765 192.742C37.3521 192.748 37.2297 192.707 37.1344 192.627C37.0414 192.542 36.9854 192.424 36.9787 192.299C36.972 192.173 37.0151 192.05 37.0986 191.956V191.956Z" fill="white"/>
<path d="M86.5775 133.353C86.6396 133.731 86.7018 134.108 86.7711 134.489C87.6327 139.56 88.9043 144.552 90.5733 149.417C90.6964 149.795 90.8268 150.176 90.9605 150.55C95.1063 162.227 101.381 173.031 109.466 182.414C112.686 186.145 116.185 189.625 119.933 192.824C125.109 197.242 131.072 201.619 134.391 207.324C134.744 207.915 135.06 208.527 135.337 209.158L121.242 241.354C121.174 241.411 121.112 241.472 121.043 241.529L120.539 242.84C120.335 242.689 120.125 242.527 119.921 242.376C119.801 242.289 119.685 242.194 119.566 242.107C119.488 242.046 119.409 241.985 119.335 241.935C119.309 241.915 119.283 241.895 119.264 241.878C119.19 241.828 119.126 241.773 119.059 241.726C117.888 240.827 116.72 239.917 115.557 238.998C115.55 238.995 115.55 238.995 115.546 238.985C106.702 231.958 98.3656 224.131 91.4811 215.285C91.274 215.019 91.0595 214.75 90.8589 214.469C87.7778 210.465 85.0287 206.215 82.639 201.762C81.3383 199.319 80.1619 196.812 79.1144 194.251C76.4204 187.627 74.7837 180.62 74.2642 173.486C73.2308 159.266 76.7507 144.873 85.8725 134.165C86.1061 133.891 86.3366 133.624 86.5775 133.353Z" fill="#E6E6E6"/>
<path d="M86.9542 133.605C83.1154 151.033 84.8584 169.23 91.9354 185.61C93.4729 189.11 95.3368 192.526 97.895 195.39C100.41 198.162 103.621 200.209 107.193 201.319C110.503 202.42 114.016 203.163 117.001 205.051C120.148 207.041 122.028 210.255 122.673 213.885C123.462 218.326 122.61 222.787 121.626 227.12C120.533 231.931 119.322 236.911 120.469 241.83C120.608 242.426 119.676 242.607 119.538 242.012C117.542 233.454 122.333 225.262 122.019 216.72C121.873 212.734 120.526 208.768 117.207 206.339C114.304 204.216 110.682 203.447 107.321 202.36C103.792 201.22 100.645 199.56 98.0139 196.903C95.3221 194.184 93.3209 190.833 91.7008 187.388C88.0851 179.548 85.723 171.188 84.7009 162.613C83.4803 152.833 83.9393 142.916 86.0581 133.291C86.1895 132.696 87.0847 133.013 86.9542 133.605Z" fill="white"/>
<path d="M89.3463 180.47C86.4406 181.286 83.3399 181.041 80.5979 179.779C77.856 178.517 75.6513 176.32 74.3775 173.58C74.1217 173.025 74.9713 172.601 75.2274 173.157C76.4088 175.71 78.4627 177.756 81.0184 178.926C83.5742 180.096 86.4634 180.313 89.1646 179.537C89.7518 179.369 89.9301 180.303 89.3463 180.47H89.3463Z" fill="white"/>
<path d="M105.441 200.981C108.511 195.624 109.452 189.304 108.076 183.282C107.939 182.686 108.871 182.505 109.007 183.1C110.428 189.369 109.435 195.944 106.228 201.512C105.922 202.043 105.137 201.509 105.441 200.981Z" fill="white"/>
<path d="M84.6879 153.186C85.8779 153.105 87.0291 152.729 88.0382 152.093C89.0473 151.456 89.8827 150.578 90.4693 149.538C90.7685 149.004 91.5536 149.539 91.2564 150.069C90.603 151.215 89.6792 152.183 88.5659 152.889C87.4525 153.595 86.1835 154.018 84.8696 154.119C84.7466 154.139 84.6206 154.111 84.5172 154.042C84.4138 153.972 84.3408 153.865 84.3131 153.744C84.2896 153.62 84.3158 153.492 84.386 153.388C84.4562 153.283 84.5647 153.211 84.6879 153.186V153.186Z" fill="white"/>
<path d="M134.551 45.08L158.326 323.762L110.777 327.342V48.6256C116.443 44.8715 124.576 44.2842 134.551 45.08Z" fill="#CCCCCC"/>
<path d="M251.904 45.08L228.13 323.762L275.679 327.342V48.6256C270.013 44.8715 261.88 44.2842 251.904 45.08Z" fill="#CCCCCC"/>
<path d="M268.559 338.86H117.391C114.967 338.857 112.643 337.892 110.929 336.175C109.215 334.459 108.251 332.132 108.248 329.705V52.7156C108.251 50.2884 109.215 47.9613 110.929 46.245C112.643 44.5287 114.967 43.5633 117.391 43.5605H268.559C270.983 43.5633 273.307 44.5287 275.021 46.245C276.735 47.9613 277.699 50.2884 277.702 52.7156V329.705C277.699 332.132 276.735 334.459 275.021 336.175C273.307 337.892 270.983 338.857 268.559 338.86ZM117.391 46.5996C115.771 46.6014 114.219 47.2463 113.074 48.3929C111.929 49.5395 111.285 51.0941 111.283 52.7156V329.705C111.285 331.326 111.929 332.881 113.074 334.027C114.219 335.174 115.771 335.819 117.391 335.821H268.559C270.178 335.819 271.731 335.174 272.876 334.027C274.021 332.881 274.665 331.326 274.667 329.705V52.7156C274.665 51.0941 274.021 49.5395 272.876 48.3929C271.731 47.2463 270.178 46.6014 268.559 46.5996L117.391 46.5996Z" fill="#CCCCCC"/>
<path d="M276.184 89.6536H109.766V92.6927H276.184V89.6536Z" fill="#CCCCCC"/>
<path d="M276.184 140.305H109.766V143.344H276.184V140.305Z" fill="#CCCCCC"/>
<path d="M163.77 45.08H160.735V183.359H163.77V45.08Z" fill="#CCCCCC"/>
<path d="M225.215 45.08H222.18V183.359H225.215V45.08Z" fill="#CCCCCC"/>
<path d="M295.153 347.218H95.8552C92.233 347.218 88.7592 345.777 86.1979 343.212C83.6367 340.647 82.1978 337.169 82.1978 333.542C82.1978 329.914 83.6367 326.436 86.1979 323.871C88.7592 321.306 92.233 319.866 95.8552 319.866H295.153C298.775 319.866 302.249 321.306 304.81 323.871C307.372 326.436 308.81 329.914 308.81 333.542C308.81 337.169 307.372 340.647 304.81 343.212C302.249 345.777 298.775 347.218 295.153 347.218Z" fill="#CCCCCC"/>
<path d="M276.184 176.268H110.777V186.398H276.184V176.268Z" fill="#CCCCCC"/>
<path d="M164.241 208.508L164.031 208.407C152.755 202.952 137.989 202.957 116.153 208.425L115.919 208.483L115.849 208.252C113.539 200.668 110.923 192.077 115.839 187.851C115.908 175.448 126.772 165.378 140.116 165.378C153.458 165.378 164.321 175.443 164.394 187.842C171.707 193.441 168.222 201.715 164.359 208.307L164.241 208.508Z" fill="#2F2E41"/>
<path d="M233.546 181.951C233.344 182.956 232.924 183.905 232.316 184.73C231.708 185.554 230.927 186.236 230.028 186.726C229.129 187.216 228.133 187.503 227.111 187.566C226.09 187.629 225.066 187.467 224.114 187.091L184.266 227.189L180.71 214.738L220.287 177.502C221.024 175.941 222.306 174.705 223.892 174.029C225.477 173.352 227.256 173.281 228.89 173.829C230.524 174.378 231.901 175.508 232.759 177.004C233.617 178.501 233.897 180.261 233.546 181.951L233.546 181.951Z" fill="#FFB6B6"/>
<path d="M135.061 220.554C135.061 220.554 131.446 228.758 140.366 233.817C149.287 238.876 180.465 231.887 185.524 230.911C190.583 229.935 209.478 201.62 209.478 201.62L206.806 187.734L181.747 209.517L135.061 220.554Z" fill="#6C63FF"/>
<path d="M128.481 265.922L128.987 275.545C128.987 275.545 127.494 284.07 128.722 285.91C129.941 287.74 163.195 287.972 163.195 287.972C163.195 287.972 165.392 276.111 167.284 265.729L128.481 265.922Z" fill="#FFB6B6"/>
<path d="M224.091 393.169L231.043 391.763L229.053 363.644L218.792 365.72L224.091 393.169Z" fill="#FFB6B6"/>
<path d="M234.049 356.577L240.512 353.667L232.128 326.763L222.589 331.058L234.049 356.577Z" fill="#FFB6B6"/>
<path d="M239.678 341.418L227.509 348.318L197.497 300.025C176.428 314.239 155.826 321.045 135.057 324.678C128.035 325.93 120.876 325.295 119.528 318.138C119.465 317.804 119.414 317.467 119.377 317.129C118.548 309.312 128.258 299.292 129.493 289.728L156.069 288.13L159.347 292.338L190.082 273.416C196.263 269.611 204.392 271.669 208.239 278.013C208.442 278.348 208.631 278.692 208.805 279.043L239.678 341.418Z" fill="#2F2E41"/>
<path d="M232.23 373.904L218.306 375.2L193.058 323.494C168.022 327.806 144.402 329.187 123.972 323.972C117.055 322.23 112.827 315.078 114.528 307.997C114.608 307.666 114.7 307.339 114.804 307.015C117.249 299.545 123.649 294.259 128.692 286.043L165.525 286.603L161.411 300.817L197.192 296.181C204.387 295.248 210.959 300.464 211.87 307.83C211.918 308.219 211.949 308.609 211.964 309.001L232.23 373.904Z" fill="#2F2E41"/>
<path d="M142.864 201.157C151.124 201.157 157.82 194.452 157.82 186.18C157.82 177.909 151.124 171.204 142.864 171.204C134.603 171.204 127.907 177.909 127.907 186.18C127.907 194.452 134.603 201.157 142.864 201.157Z" fill="#FFB6B6"/>
<path d="M134.095 206.564L147.809 208.179C148.387 208.247 148.93 208.494 149.361 208.886C149.793 209.278 150.091 209.794 150.216 210.364L152.397 220.357L165.992 236.388C165.992 236.388 170.873 245.554 169.043 255.942C167.212 266.33 166.408 274.049 166.408 274.049C166.408 274.049 129.939 287.741 128.719 285.908C127.498 284.075 127.102 275.748 127.102 275.748L122.22 221.364C122.22 221.364 127.712 212.198 130.763 212.198C132.733 212.131 132.48 207.693 134.095 206.564Z" fill="#6C63FF"/>
<path d="M166.778 277.393C168.701 277.393 170.26 275.52 170.26 273.209C170.26 270.898 168.701 269.025 166.778 269.025C164.855 269.025 163.296 270.898 163.296 273.209C163.296 275.52 164.855 277.393 166.778 277.393Z" fill="#6C63FF"/>
<path d="M220.641 385.929L231.24 380.61L233.237 385.277L246.64 387.99C247.302 388.124 247.904 388.466 248.358 388.967C248.812 389.468 249.094 390.101 249.163 390.773C249.233 391.446 249.085 392.123 248.743 392.706C248.401 393.289 247.881 393.747 247.261 394.014L234.311 399.572L230.103 395.914L231.207 400.904L226.324 403L220.641 385.929Z" fill="#2F2E41"/>
<path d="M231.016 354.338L241.52 348.834L243.599 353.464L257.047 355.941C257.711 356.063 258.319 356.395 258.782 356.887C259.245 357.38 259.538 358.008 259.619 358.679C259.7 359.351 259.565 360.03 259.233 360.619C258.901 361.208 258.389 361.675 257.773 361.953L244.923 367.738L240.652 364.155L241.843 369.125L236.998 371.306L231.016 354.338Z" fill="#2F2E41"/>
<path d="M134.318 181.483C130.367 181.489 126.51 180.271 123.278 177.995L123.17 177.919V177.787C123.174 173.96 124.695 170.291 127.397 167.585C130.1 164.878 133.764 163.356 137.586 163.352H143.656C147.478 163.356 151.142 164.878 153.845 167.585C156.548 170.291 158.068 173.96 158.072 177.787C158.068 178.663 157.723 179.503 157.11 180.128C156.496 180.753 155.664 181.113 154.789 181.132L134.659 181.48C134.545 181.482 134.431 181.483 134.318 181.483Z" fill="#2F2E41"/>
<path d="M159.084 175.015C161.02 173.896 161.343 170.829 159.807 168.164C158.27 165.499 155.456 164.246 153.52 165.365C151.585 166.484 151.261 169.551 152.798 172.216C154.334 174.881 157.149 176.134 159.084 175.015Z" fill="#2F2E41"/>
<path d="M128.814 172.042C130.986 169.866 131.467 166.819 129.887 165.237C128.306 163.654 125.264 164.136 123.091 166.311C120.918 168.487 120.437 171.534 122.018 173.117C123.598 174.699 126.641 174.218 128.814 172.042Z" fill="#2F2E41"/>
<path d="M261.181 308.975H246.252C245.915 308.975 245.583 309.048 245.277 309.189C244.971 309.331 244.7 309.537 244.483 309.795C243.932 309.693 243.365 309.724 242.829 309.885C242.292 310.045 241.802 310.331 241.397 310.718C240.992 311.105 240.685 311.583 240.5 312.113C240.316 312.642 240.259 313.207 240.335 313.763C240.411 314.318 240.618 314.848 240.938 315.308C241.258 315.768 241.682 316.145 242.176 316.409C242.67 316.673 243.219 316.816 243.779 316.826C244.339 316.836 244.893 316.713 245.396 316.467L246.634 320.496C246.781 320.973 247.076 321.391 247.478 321.688C247.879 321.985 248.365 322.145 248.864 322.145H258.569C259.068 322.145 259.554 321.985 259.955 321.688C260.356 321.391 260.652 320.973 260.799 320.496L263.41 311.998C263.518 311.649 263.541 311.279 263.48 310.919C263.419 310.559 263.274 310.218 263.057 309.924C262.84 309.63 262.557 309.391 262.231 309.226C261.906 309.061 261.546 308.975 261.181 308.975ZM243.853 315.813C243.182 315.813 242.539 315.547 242.064 315.072C241.59 314.597 241.323 313.953 241.323 313.281C241.323 312.609 241.59 311.965 242.064 311.49C242.539 311.015 243.182 310.748 243.853 310.748C243.899 310.748 243.942 310.759 243.988 310.762C243.887 311.17 243.899 311.597 244.023 311.998L245.091 315.475C244.715 315.694 244.288 315.811 243.853 315.813Z" fill="#3F3D56"/>
<path d="M194.519 297.98C193.499 298.075 192.471 297.944 191.508 297.598C190.544 297.252 189.668 296.698 188.941 295.976C188.215 295.254 187.655 294.381 187.301 293.419C186.948 292.457 186.809 291.429 186.896 290.407L137.102 263.687L147.993 256.705L194.971 283.985C196.675 284.244 198.225 285.12 199.328 286.446C200.43 287.773 201.008 289.459 200.953 291.184C200.897 292.909 200.211 294.554 199.025 295.806C197.839 297.059 196.236 297.832 194.519 297.98Z" fill="#FFB6B6"/>
<path d="M129.332 214.584C129.332 214.584 120.447 213.47 118.166 223.479C115.885 233.488 131.518 261.39 133.903 265.963C136.288 270.535 168.797 280.536 168.797 280.536L181.315 273.989L153.286 256.201L129.332 214.584Z" fill="#6C63FF"/>
<path d="M191.963 173.229H194.998C196.474 173.229 197.889 173.816 198.933 174.861C199.976 175.906 200.562 177.323 200.562 178.801H186.399C186.399 177.323 186.985 175.906 188.029 174.861C189.072 173.816 190.487 173.229 191.963 173.229Z" fill="#CCCCCC"/>
<path d="M95.7243 69.2742C112.33 69.2742 125.792 55.7942 125.792 39.1658C125.792 22.5375 112.33 9.0575 95.7243 9.0575C79.1185 9.0575 65.6567 22.5375 65.6567 39.1658C65.6567 55.7942 79.1185 69.2742 95.7243 69.2742Z" fill="#86B22C"/>
<path d="M187.784 37.5967C179.827 29.238 170.585 21.6125 159.645 17.583C156.597 16.4558 153.438 15.6606 150.22 15.2113C150.194 15.2078 150.17 15.213 150.144 15.2109C150.092 15.1974 150.038 15.187 149.985 15.1797C145.485 14.6056 140.917 14.8818 136.519 15.9938C134.368 16.5343 132.269 17.2663 130.248 18.181C128.221 19.1717 126.256 20.2867 124.365 21.5198C120.363 23.9186 115.957 25.5646 111.364 26.3766C109.058 26.7922 106.723 27.0217 104.381 27.0629C102.349 27.1037 100.432 27.1744 98.5066 27.9096C96.4498 28.6841 94.6022 29.9293 93.1113 31.5458C91.6204 33.1623 90.5275 35.1053 89.9197 37.2199C89.8728 37.4082 89.887 37.6066 89.96 37.7863C90.0331 37.9661 90.1612 38.1179 90.3261 38.22C90.847 38.5935 91.3547 39.0173 91.902 39.3501C92.3888 39.5732 92.9087 39.7153 93.4413 39.7705C94.3113 39.9544 95.1825 40.1328 96.0548 40.3059C99.2682 40.9435 102.495 41.5078 105.735 41.999C112.291 42.9929 118.883 43.693 125.51 44.0993C138.786 44.9045 152.108 44.5036 165.312 42.9014C172.732 42.0014 180.102 40.7249 187.394 39.0768C187.542 39.0336 187.676 38.953 187.783 38.8426C187.89 38.7323 187.967 38.5961 188.006 38.4472C188.046 38.2982 188.046 38.1417 188.007 37.9927C187.968 37.8437 187.891 37.7073 187.784 37.5967Z" fill="#E6E6E6"/>
<path d="M97.1517 57.7274C94.1042 56.6002 90.9444 55.8051 87.7268 55.3557C87.7009 55.3522 87.6764 55.3574 87.6507 55.3554C87.5983 55.3418 87.5452 55.3314 87.4917 55.3241C82.9916 54.75 78.4238 55.0262 74.0253 56.1382C71.8744 56.6787 69.776 57.4107 67.7553 58.3254C65.7274 59.3161 63.7625 60.4311 61.8718 61.6642C57.8699 64.063 53.4637 65.709 48.8706 66.521C46.5651 66.9366 44.23 67.1661 41.8878 67.2073C39.8555 67.2481 37.9389 67.3188 36.0134 68.054C33.9566 68.8285 32.1091 70.0737 30.6182 71.6902C29.1273 73.3067 28.0343 75.2497 27.4265 77.3643C27.3797 77.5526 27.3938 77.7509 27.4668 77.9307C27.5399 78.1104 27.6681 78.2623 27.8329 78.3643C28.3538 78.7379 28.8616 79.1617 29.4088 79.4945C29.8956 79.7176 30.4156 79.8596 30.9481 79.9149C31.8182 80.0987 32.6893 80.2772 33.5616 80.4503C36.775 81.0878 40.0018 81.6522 43.242 82.1434C49.7983 83.1372 56.39 83.8373 63.0171 84.2436C76.2931 85.0489 89.6147 84.648 102.818 83.0458C110.239 82.1458 117.609 80.8693 124.901 79.2212C125.048 79.178 125.182 79.0973 125.29 78.987C125.397 78.8767 125.474 78.7404 125.513 78.5915C125.553 78.4426 125.553 78.2861 125.514 78.1371C125.475 77.9881 125.398 77.8517 125.291 77.7411C117.334 69.3824 108.092 61.757 97.1517 57.7274Z" fill="#E6E6E6"/>
<path d="M367.244 232.735C367.758 245.482 369.73 258.128 373.122 270.424C372.393 272.142 371.641 273.847 370.866 275.54C367.931 281.954 364.645 288.2 361.022 294.251C350.863 311.243 338.182 326.589 323.414 339.762C321.815 341.185 320.195 342.585 318.553 343.961C309.19 331.034 304.137 316.771 302.139 302.092C301.886 300.228 301.678 298.344 301.521 296.47V296.459C301.138 291.905 301.014 287.332 301.152 282.763C301.157 282.399 301.167 282.029 301.182 281.659C301.36 276.776 301.8 271.883 302.462 267.036V267.031C302.538 266.474 302.614 265.916 302.7 265.359C302.943 263.688 303.216 262.016 303.514 260.355C305.251 250.773 307.675 241.329 310.768 232.096V232.091C310.854 231.823 310.94 231.559 311.036 231.296C311.37 230.293 311.709 229.3 312.058 228.308C312.08 228.23 312.107 228.154 312.139 228.08C312.589 226.783 313.049 225.496 313.52 224.22C313.646 223.865 313.778 223.511 313.914 223.156C314.445 221.733 314.987 220.32 315.538 218.927C315.71 218.481 315.887 218.035 316.064 217.595C316.201 217.255 316.332 216.916 316.474 216.582V216.577C317.278 214.586 318.092 212.634 318.917 210.721C321.229 205.342 323.606 200.282 325.923 195.617L325.928 195.612C335.544 176.298 344.284 163.757 344.284 163.757L377.108 174.394C373.193 181.348 370.163 191.605 368.504 203.706C367.225 213.324 366.804 223.037 367.244 232.729L367.244 232.735Z" fill="#FFB344" fill-opacity="0.7"/>
<path d="M312.69 229.64C312.498 229.189 312.28 228.748 312.058 228.308C310.904 226.07 309.418 224.021 307.652 222.229C307.389 221.961 307.116 221.692 306.833 221.439C303.786 218.629 300.081 216.633 296.06 215.636C292.039 214.639 287.832 214.674 283.827 215.736L283.807 215.746L283.655 215.786L283.691 215.959C283.842 216.761 284.062 217.549 284.348 218.314C284.424 218.522 284.51 218.719 284.596 218.917C284.632 219.008 284.677 219.089 284.718 219.18C284.718 219.18 284.712 219.185 284.723 219.185C284.723 219.19 284.728 219.195 284.728 219.2C284.824 219.388 284.915 219.58 285.016 219.763C284.809 219.565 284.611 219.362 284.419 219.155C284.232 218.962 284.06 218.76 283.888 218.557C283.298 217.869 282.766 217.133 282.295 216.359L282.214 216.222L282.072 216.278C280.163 216.94 278.342 217.833 276.649 218.937L276.467 219.059C275.175 219.908 273.719 220.476 272.193 220.726C270.667 220.975 269.106 220.901 267.61 220.507C265.253 219.899 262.795 219.787 260.393 220.181C257.99 220.574 255.695 221.463 253.654 222.792C252.302 223.674 251.08 224.741 250.023 225.962C249.931 226.069 249.84 226.18 249.749 226.287C249.557 226.52 249.375 226.758 249.198 227.001C247.297 229.546 246.129 232.565 245.824 235.728L245.814 235.845L245.91 235.91C247.622 237.085 249.557 237.892 251.596 238.281C250.315 238.46 249.019 238.492 247.731 238.377H247.726C247.142 238.329 246.561 238.248 245.986 238.134L245.88 238.114H245.875L245.743 238.088L245.763 238.332C245.914 241.427 246.887 244.425 248.581 247.018L248.631 247.089C248.65 247.115 248.667 247.142 248.682 247.17C249.4 248.269 249.997 249.443 250.463 250.67C251.645 253.72 251.906 257.051 251.211 260.249C250.426 263.668 250.687 267.245 251.961 270.514C253.235 273.783 255.462 276.592 258.354 278.574C260.893 280.324 263.853 281.364 266.927 281.588C267.347 281.624 267.772 281.644 268.197 281.644C270.629 281.651 273.036 281.149 275.264 280.17L275.344 280.14L275.365 280.048C275.793 278.664 276.395 277.34 277.155 276.108C276.906 277.079 276.781 278.078 276.781 279.081V279.415L277.069 279.248C277.317 279.101 277.57 278.944 277.798 278.797C279.164 277.904 280.402 276.827 281.475 275.596C281.895 275.11 282.32 274.639 282.765 274.168L282.77 274.163C283.635 273.241 284.551 272.339 285.502 271.478C287.525 269.659 289.69 268.004 291.976 266.529C294.261 265.06 296.65 263.76 299.124 262.639H299.129C299.407 262.508 299.69 262.381 299.968 262.259C301.2 261.722 302.386 261.085 303.514 260.355C303.555 260.33 303.59 260.309 303.626 260.284C308.515 257.078 312.11 252.238 313.77 246.627C315.43 241.015 315.047 234.995 312.69 229.64L312.69 229.64Z" fill="#FFB344"/>
<path opacity="0.15" d="M252.045 267.44C251.907 268.056 251.802 268.679 251.731 269.306C250.79 266.326 250.653 263.149 251.336 260.099C251.441 259.633 251.52 259.161 251.582 258.686C252.517 261.51 252.676 264.533 252.045 267.44Z" fill="black"/>
<path opacity="0.15" d="M252.427 245.469C250.929 245.677 249.409 245.684 247.909 245.49C247.516 244.748 247.177 243.979 246.894 243.188C248.564 244.317 250.447 245.093 252.427 245.469Z" fill="black"/>
<path opacity="0.15" d="M247.789 238.214C247.236 239.631 246.869 241.113 246.696 242.624C246.234 241.185 245.962 239.692 245.885 238.182L245.873 237.939L246.112 237.985C246.667 238.09 247.227 238.166 247.789 238.214Z" fill="black"/>
<path opacity="0.15" d="M253.785 222.641C255.824 221.311 258.117 220.42 260.518 220.026C262.92 219.633 265.377 219.744 267.733 220.354C269.229 220.75 270.791 220.826 272.318 220.576C273.845 220.327 275.302 219.759 276.595 218.908L276.778 218.787C278.469 217.681 280.289 216.785 282.197 216.122L282.343 216.071L282.423 216.203C283.177 217.452 284.091 218.597 285.142 219.609C284.504 218.419 284.057 217.135 283.818 215.805L283.783 215.63L283.956 215.584C287.711 214.589 291.649 214.497 295.447 215.315C299.245 216.134 302.796 217.84 305.81 220.294C308.824 222.749 311.216 225.882 312.791 229.438C314.365 232.995 315.078 236.873 314.87 240.758C314.074 237.591 312.657 234.614 310.703 231.999C308.749 229.384 306.296 227.183 303.487 225.525C300.677 223.866 297.567 222.782 294.336 222.336C291.105 221.89 287.818 222.09 284.665 222.925L284.492 222.971L284.526 223.146C284.766 224.476 285.213 225.76 285.851 226.95C284.8 225.938 283.886 224.793 283.131 223.544L283.052 223.412L282.906 223.462C280.998 224.126 279.178 225.021 277.486 226.128L277.304 226.248C276.011 227.099 274.554 227.668 273.027 227.917C271.5 228.167 269.938 228.091 268.442 227.695C264.526 226.677 260.379 227.051 256.708 228.753C253.037 230.455 250.069 233.38 248.31 237.028C247.527 236.651 246.768 236.227 246.037 235.757L245.938 235.694L245.95 235.577C246.201 232.97 247.037 230.453 248.393 228.214C249.75 225.974 251.592 224.069 253.785 222.641Z" fill="black"/>
<path d="M441.834 93.2195L441.354 92.9004L441.005 93.3562C438.303 96.7618 436.154 100.572 434.636 104.646C434.846 99.9524 435.665 95.3056 437.074 90.8236L437.226 90.3526L436.791 90.1044C431.131 86.8952 425.101 84.3913 418.834 82.6484L418.151 82.4661C413.348 81.1464 408.877 78.8278 405.029 75.6614C401.181 72.4951 398.043 68.5521 395.819 64.0897C390.651 53.8482 382.487 45.4284 372.416 39.954C362.345 34.4796 350.846 32.2108 339.454 33.4504H339.449C339.327 33.4606 339.201 33.4758 339.08 33.491C338.872 33.5112 338.67 33.5365 338.467 33.5619C338.053 33.6176 337.648 33.6733 337.243 33.7341C336.899 33.7847 336.55 33.8404 336.206 33.9012C336.024 33.9266 335.847 33.9569 335.67 33.9924C335.493 34.0228 335.311 34.0532 335.134 34.0886H335.129C331.733 34.7319 328.403 35.69 325.184 36.9505H325.179V36.9555L324.365 37.2746C323.525 37.619 322.692 37.9837 321.866 38.3687C321.679 38.4548 321.497 38.546 321.31 38.6321C321.259 38.6574 321.203 38.6827 321.153 38.7131C320.622 38.9664 320.096 39.2298 319.575 39.5084C319.499 39.5438 319.423 39.5843 319.347 39.6249L318.861 39.8832C317.794 40.4606 316.745 41.0735 315.715 41.7218C315.629 41.7725 315.548 41.8231 315.462 41.8788C315.371 41.9396 315.275 42.0004 315.184 42.0612C315.128 42.0916 315.073 42.1321 315.017 42.1676C314.86 42.2638 314.709 42.3651 314.557 42.4715C314.253 42.669 313.95 42.8716 313.651 43.0793C313.343 43.287 313.039 43.5048 312.736 43.7226L312.432 43.9404L312.488 44.3152C312.539 44.6242 312.584 44.9332 312.64 45.2371C312.69 45.541 312.741 45.8398 312.797 46.1387C312.883 46.6401 312.979 47.1365 313.075 47.6177C313.14 47.9368 313.201 48.2508 313.272 48.5598C313.338 48.8789 313.409 49.198 313.484 49.5171C313.631 50.1756 313.788 50.8138 313.955 51.4419C314.036 51.7559 314.122 52.07 314.213 52.379C314.263 52.5664 314.314 52.7538 314.37 52.9361C314.41 53.0628 314.451 53.1894 314.491 53.316C314.501 53.3565 314.511 53.4021 314.526 53.4477C314.538 53.4906 314.551 53.5329 314.567 53.5743C314.623 53.7618 314.678 53.9441 314.734 54.1214C314.764 54.2176 314.795 54.3138 314.83 54.405C314.901 54.6228 314.977 54.8457 315.053 55.0584C315.133 55.3016 315.219 55.5447 315.305 55.7827C315.326 55.8435 315.346 55.8992 315.366 55.96C315.381 56.0056 315.396 56.0512 315.417 56.0968C315.437 56.1474 315.457 56.2032 315.477 56.2538C315.563 56.4817 315.649 56.7147 315.74 56.9427C315.771 57.0237 315.801 57.1098 315.837 57.1909C316.657 59.2543 317.664 61.2381 318.846 63.1171C317.536 61.9927 316.275 60.8006 315.063 59.5411C313.191 57.5936 311.466 55.5095 309.903 53.3059C309.777 53.1337 309.65 52.9564 309.534 52.7791C309.296 52.4397 309.063 52.1004 308.836 51.7559C308.593 51.4014 308.36 51.0316 308.133 50.6669C307.981 50.4238 307.829 50.1756 307.683 49.9325C307.536 49.6995 307.399 49.4715 307.268 49.2385L306.873 48.5598H306.868V48.5649L306.312 49.1119C306.089 49.3297 305.867 49.5475 305.649 49.7653C298.85 56.615 293.926 65.101 291.349 74.4074L291.273 74.6859L291.198 74.9747C291.051 75.4913 290.904 75.9928 290.747 76.5043V76.5094C290.596 77.0159 290.434 77.5224 290.262 78.0188C290.105 78.4899 289.943 78.9559 289.771 79.4219C289.715 79.5789 289.655 79.7359 289.589 79.8929C289.483 80.1968 289.366 80.4957 289.25 80.7996C289.194 80.9364 289.139 81.0782 289.083 81.215C288.947 81.5493 288.81 81.8835 288.673 82.2128C288.653 82.2634 288.628 82.3192 288.603 82.3698C288.562 82.4711 288.517 82.5724 288.476 82.6687C288.37 82.9118 288.259 83.16 288.152 83.4031C288.077 83.5601 288.006 83.7222 287.935 83.8792C287.905 83.9501 287.869 84.0211 287.839 84.092C287.652 84.4972 287.459 84.8973 287.257 85.2924C287.029 85.7584 286.797 86.2244 286.549 86.6803C286.331 87.1058 286.104 87.5211 285.866 87.9365C285.456 88.6709 285.026 89.4003 284.581 90.1094C284.409 90.3829 284.237 90.6565 284.06 90.93C284.02 90.9958 283.979 91.0617 283.939 91.1225C283.792 91.3605 283.64 91.5885 283.484 91.8214C283.377 91.9785 283.271 92.1355 283.165 92.2874C282.988 92.561 282.801 92.8244 282.608 93.0827C282.558 93.1637 282.502 93.2397 282.447 93.3157C282.163 93.7108 281.88 94.0957 281.592 94.4807C281.582 94.4857 281.582 94.4908 281.577 94.4959C281.566 94.4959 281.566 94.5009 281.561 94.506C281.435 94.6731 281.309 94.8403 281.177 95.0024C281.005 95.2404 280.818 95.4734 280.631 95.7014C280.327 96.0863 280.009 96.4763 279.685 96.8562C279.675 96.8664 279.67 96.8765 279.66 96.8816C277.984 98.8534 276.168 100.702 274.227 102.413C274.191 102.443 274.166 102.474 274.131 102.499C273.858 102.737 273.584 102.975 273.301 103.208C273.185 103.304 273.069 103.4 272.952 103.497C272.76 103.659 272.563 103.821 272.37 103.968C272.348 103.991 272.322 104.011 272.295 104.029C272.123 104.17 271.956 104.302 271.784 104.434C271.576 104.601 271.369 104.758 271.156 104.915C270.155 105.675 269.126 106.392 268.071 107.068C267.914 107.174 267.747 107.28 267.585 107.382C267.489 107.442 267.393 107.503 267.302 107.554C266.918 107.792 266.533 108.025 266.149 108.248C265.764 108.476 265.37 108.694 264.98 108.906C264.146 109.362 263.321 109.838 262.517 110.335C262.112 110.588 261.708 110.841 261.308 111.1C259.72 112.133 258.19 113.239 256.72 114.417C255.25 115.596 253.84 116.849 252.496 118.17C252.329 118.333 252.163 118.5 251.996 118.672C251.662 119.001 251.338 119.335 251.029 119.67C250.534 120.181 250.058 120.708 249.588 121.24C247.107 124.058 244.911 127.116 243.032 130.367C242.089 131.991 241.231 133.663 240.463 135.377C239.881 136.658 239.35 137.97 238.869 139.297C238.551 140.184 238.252 141.079 237.974 141.982C237.837 142.433 237.706 142.888 237.579 143.344C237.149 144.889 236.79 146.449 236.497 148.014C236.259 149.271 236.067 150.528 235.92 151.788C235.844 152.421 235.784 153.054 235.728 153.682C235.598 155.226 235.531 156.771 235.528 158.318C235.519 162.958 236.083 167.582 237.205 172.084C237.453 173.077 237.728 174.065 238.03 175.047C238.181 175.539 238.343 176.025 238.505 176.511C238.915 177.727 239.368 178.931 239.866 180.123C240.164 180.837 240.478 181.546 240.807 182.25C242.896 186.726 245.563 190.908 248.738 194.69C249.259 195.313 249.797 195.926 250.352 196.529C250.357 196.529 250.352 196.534 250.352 196.534C251.728 198.037 253.185 199.464 254.717 200.809H254.722C255.334 201.351 255.956 201.876 256.588 202.384C256.594 202.379 256.594 202.384 256.594 202.384C257.231 202.901 257.873 203.397 258.531 203.878C258.86 204.116 259.194 204.354 259.532 204.592C260.195 205.063 260.871 205.518 261.561 205.955H261.566C262.254 206.401 262.952 206.826 263.66 207.231C265.081 208.047 266.538 208.812 268.035 209.506L268.288 209.622L268.546 209.506C270.947 208.424 273.422 207.515 275.952 206.786C276.508 206.624 277.07 206.477 277.626 206.335C279.032 205.985 280.449 205.692 281.875 205.453C280.485 206.152 279.143 206.942 277.859 207.819C276.862 208.493 275.881 209.227 274.895 210.037C274.566 210.306 274.237 210.585 273.908 210.868L273.089 211.577L274.116 211.917C274.49 212.038 274.864 212.16 275.239 212.271C275.749 212.433 276.255 212.58 276.751 212.717C277.833 213.021 278.923 213.289 280.019 213.522C280.287 213.578 280.55 213.634 280.818 213.689C281.339 213.791 281.865 213.892 282.391 213.983C282.413 213.989 282.435 213.992 282.457 213.993C283.003 214.085 283.554 214.171 284.101 214.247C285.117 214.394 286.134 214.51 287.151 214.596C287.262 214.611 287.373 214.616 287.49 214.621C287.738 214.642 287.98 214.662 288.228 214.677C288.775 214.713 289.326 214.738 289.877 214.758C289.918 214.758 289.953 214.763 289.994 214.763C290.272 214.773 290.55 214.784 290.828 214.789C290.828 214.789 290.828 214.794 290.833 214.789C291.112 214.794 291.39 214.799 291.668 214.799H293.206C293.494 214.799 293.782 214.804 294.076 214.804C294.48 214.804 294.89 214.809 295.295 214.814C295.401 214.814 295.512 214.819 295.624 214.819C296.271 214.829 296.918 214.844 297.566 214.86C297.606 214.86 297.647 214.865 297.687 214.865C298.335 214.885 298.982 214.905 299.63 214.936C299.771 214.941 299.913 214.946 300.06 214.956C300.682 214.981 301.304 215.011 301.926 215.047C302.103 215.057 302.285 215.072 302.467 215.082C302.938 215.108 303.413 215.138 303.884 215.174C304.162 215.189 304.435 215.209 304.713 215.234C305.836 215.32 306.954 215.417 308.077 215.528C308.451 215.559 308.826 215.599 309.2 215.64C310.202 215.746 311.207 215.862 312.215 215.989C312.665 216.04 313.115 216.1 313.565 216.161C313.616 216.166 313.667 216.171 313.717 216.182C314.274 216.258 314.825 216.333 315.381 216.415C315.746 216.465 316.11 216.521 316.474 216.577C316.848 216.632 317.223 216.688 317.597 216.754C317.799 216.784 318.002 216.82 318.209 216.855C318.695 216.931 319.185 217.012 319.676 217.103C319.72 217.108 319.764 217.114 319.807 217.124C320.849 217.306 321.896 217.498 322.938 217.706C323.551 217.823 324.158 217.944 324.765 218.071C325.24 218.167 325.715 218.268 326.191 218.37C326.272 218.385 326.353 218.405 326.434 218.425C326.452 218.431 326.471 218.434 326.489 218.436C327.208 218.593 327.931 218.755 328.649 218.927C331.143 219.504 333.633 220.146 336.12 220.852C336.692 221.009 337.264 221.176 337.835 221.343C338.078 221.414 338.316 221.485 338.554 221.556C339.049 221.703 339.54 221.849 340.036 222.006C340.471 222.138 340.911 222.275 341.346 222.417C341.619 222.503 341.892 222.589 342.165 222.68C342.59 222.812 343.015 222.949 343.435 223.095C343.794 223.207 344.148 223.323 344.502 223.45C345.008 223.617 345.519 223.789 346.025 223.972C346.171 224.022 346.323 224.073 346.47 224.129C347.087 224.342 347.704 224.559 348.321 224.787C348.923 225.005 349.525 225.228 350.122 225.451C350.537 225.608 350.951 225.76 351.361 225.922C351.821 226.099 352.282 226.276 352.737 226.459C353.395 226.717 354.057 226.98 354.715 227.249C355.322 227.492 355.924 227.74 356.531 227.999C356.642 228.044 356.758 228.09 356.87 228.14C357.396 228.358 357.922 228.586 358.443 228.814C358.782 228.956 359.116 229.103 359.449 229.25C360.906 229.888 362.361 230.548 363.815 231.23H363.82C364.73 231.661 365.656 232.071 366.587 232.461C366.804 232.552 367.022 232.643 367.244 232.729C367.614 232.886 367.988 233.033 368.362 233.185C368.605 233.282 368.848 233.378 369.096 233.469C369.455 233.611 369.819 233.748 370.183 233.879C370.568 234.021 370.947 234.163 371.337 234.295C371.473 234.345 371.61 234.391 371.751 234.441C372.201 234.593 372.652 234.745 373.107 234.892C373.152 234.908 373.198 234.923 373.249 234.938C373.724 235.09 374.199 235.242 374.68 235.384C374.718 235.398 374.757 235.41 374.796 235.419C375.312 235.576 375.838 235.728 376.359 235.875C377.128 236.088 377.902 236.29 378.676 236.478C378.818 236.513 378.959 236.549 379.101 236.579C379.516 236.68 379.926 236.777 380.34 236.868C380.78 236.969 381.225 237.06 381.666 237.151C382.111 237.243 382.556 237.334 382.996 237.415C383.234 237.46 383.471 237.506 383.704 237.546L384.326 237.653C384.756 237.729 385.186 237.795 385.621 237.866C385.633 237.865 385.645 237.867 385.657 237.871C386.147 237.947 386.633 238.018 387.124 238.078C387.594 238.144 388.064 238.2 388.535 238.256C388.631 238.266 388.732 238.276 388.833 238.286C389.223 238.332 389.612 238.377 390.002 238.413C390.113 238.423 390.224 238.433 390.336 238.443C390.72 238.478 391.104 238.514 391.489 238.539C391.566 238.549 391.644 238.554 391.722 238.554C392.065 238.585 392.409 238.61 392.753 238.625C392.996 238.646 393.234 238.656 393.477 238.671C393.603 238.676 393.725 238.681 393.851 238.686C394.185 238.706 394.519 238.717 394.858 238.727C395.267 238.742 395.677 238.752 396.082 238.762C396.572 238.772 397.068 238.777 397.559 238.777H397.569C398.049 238.777 398.535 238.772 399.016 238.762H399.198L399.729 238.747C400.002 238.742 400.275 238.732 400.543 238.722C401.059 238.701 401.57 238.676 402.081 238.646C402.283 238.635 402.491 238.62 402.693 238.61C402.784 238.605 402.88 238.595 402.971 238.59C403.29 238.57 403.604 238.549 403.922 238.524C404.251 238.499 404.585 238.468 404.914 238.433C405.339 238.392 405.763 238.347 406.188 238.301C406.522 238.266 406.856 238.225 407.185 238.185C407.229 238.181 407.273 238.174 407.316 238.164C407.635 238.129 407.954 238.088 408.267 238.043C408.642 237.992 409.011 237.936 409.38 237.881C409.421 237.876 409.456 237.871 409.497 237.866C410.134 237.764 410.776 237.663 411.419 237.546C412.091 237.425 412.764 237.293 413.432 237.156C413.68 237.106 413.923 237.05 414.17 236.999C414.307 236.969 414.449 236.944 414.58 236.913C414.788 236.868 414.99 236.822 415.192 236.771C415.228 236.766 415.268 236.756 415.304 236.751C415.587 236.69 415.865 236.62 416.148 236.549C416.715 236.412 417.271 236.27 417.828 236.118C418.075 236.057 418.323 235.991 418.561 235.926C418.632 235.905 418.703 235.885 418.768 235.865C419.795 235.576 420.814 235.271 421.824 234.948C422.269 234.806 422.709 234.659 423.149 234.502C424.095 234.178 425.032 233.837 425.961 233.479C426.209 233.388 426.457 233.287 426.705 233.19C427.069 233.044 427.433 232.897 427.792 232.75C428.116 232.613 428.44 232.476 428.769 232.334C428.931 232.269 429.092 232.198 429.254 232.127C429.74 231.914 430.226 231.696 430.706 231.478C431.03 231.326 431.348 231.18 431.667 231.028C432.173 230.784 432.674 230.536 433.175 230.288C433.301 230.222 433.422 230.156 433.544 230.096C433.862 229.934 434.181 229.766 434.505 229.604C435.016 229.331 435.527 229.057 436.033 228.774C436.204 228.682 436.371 228.586 436.543 228.49C437.1 228.176 437.651 227.857 438.197 227.533C439.406 226.808 440.598 226.052 441.774 225.263C442.067 225.071 442.36 224.868 442.649 224.671C443.195 224.296 443.731 223.911 444.267 223.526C444.323 223.486 444.374 223.445 444.429 223.41C444.697 223.212 444.965 223.014 445.234 222.812C445.79 222.391 446.341 221.966 446.893 221.53C446.903 221.525 446.918 221.51 446.933 221.5C447.181 221.302 447.429 221.105 447.672 220.907C448.425 220.294 449.169 219.671 449.897 219.028C450.256 218.719 450.611 218.4 450.96 218.081C451.223 217.843 451.486 217.605 451.744 217.362C452.265 216.87 452.775 216.384 453.281 215.888C453.534 215.645 453.782 215.391 454.035 215.138C454.283 214.885 454.536 214.632 454.784 214.373C454.87 214.287 454.956 214.196 455.042 214.105C455.295 213.836 455.548 213.563 455.8 213.294C456.018 213.061 456.23 212.818 456.448 212.575C456.812 212.17 457.181 211.765 457.54 211.354C457.559 211.331 457.58 211.309 457.601 211.289C457.621 211.263 457.642 211.243 457.657 211.223H457.652C465.004 202.709 470.467 192.729 473.679 181.942C476.891 171.156 477.779 159.81 476.284 148.654C474.788 137.498 470.944 126.788 465.005 117.231C459.066 107.675 451.169 99.4905 441.834 93.2195L441.834 93.2195Z" fill="#FFB344"/>
<g opacity="0.15">
<path opacity="0.15" d="M339.449 33.4464C340.458 37.0733 341.975 40.5386 343.955 43.7388C340.64 40.8869 337.678 37.6476 335.132 34.09C336.562 33.8192 338.001 33.6046 339.449 33.4464Z" fill="black"/>
<path opacity="0.15" d="M290.092 89.5366C286.348 91.5826 282.847 94.0465 279.657 96.8812C285.044 90.503 288.981 83.0281 291.195 74.9746C291.221 74.8779 291.248 74.7805 291.275 74.6836L291.35 74.4095C294.01 64.7976 299.173 56.0658 306.309 49.1072L306.87 48.5598L307.266 49.2362C309.454 52.9611 312.072 56.4151 315.066 59.5269C310.478 72.4907 301.55 83.2801 290.092 89.5366Z" fill="black"/>
<path opacity="0.15" d="M316.46 55.0351L316.385 55.3092C316.359 55.4061 316.332 55.5036 316.305 55.6003C316.157 56.1333 316 56.6623 315.838 57.189C314.238 53.0388 313.114 48.7198 312.489 44.3153L312.43 43.9415L312.737 43.7219C316.586 40.9523 320.766 38.6766 325.181 36.9481C321.217 42.4065 318.264 48.5325 316.46 55.0351Z" fill="black"/>
<path opacity="0.15" d="M264.982 108.911C268.295 107.095 271.396 104.915 274.227 102.412C268.571 109.006 264.517 116.822 262.382 125.248C260.247 133.673 260.09 142.48 261.922 150.976C263.754 159.473 267.526 167.43 272.943 174.222C278.36 181.015 285.274 186.46 293.143 190.129L293.399 190.247L293.654 190.132C297.904 188.209 302.386 186.846 306.987 186.078C304.115 187.543 301.438 189.362 299.019 191.494L298.201 192.203L299.228 192.542C300.114 192.836 301 193.106 301.862 193.345C306.924 194.757 312.158 195.458 317.413 195.429C341.289 195.275 365.35 200.803 388.928 211.857C392.971 213.75 397.165 215.302 401.466 216.497C420.21 221.723 440.22 219.843 457.666 211.218C447.83 222.609 434.969 230.972 420.576 235.336C406.184 239.699 390.85 239.885 376.356 235.872C372.055 234.676 367.861 233.124 363.818 231.231C340.24 220.177 316.178 214.65 292.302 214.803C287.047 214.832 281.814 214.131 276.751 212.719C275.89 212.48 275.004 212.21 274.117 211.916L273.091 211.577L273.909 210.868C276.328 208.736 279.005 206.917 281.876 205.452C277.276 206.221 272.794 207.583 268.544 209.506L268.289 209.622L268.033 209.503C258.583 205.099 250.541 198.151 244.804 189.436C239.068 180.721 235.862 170.582 235.546 160.149C235.23 149.716 237.814 139.4 243.012 130.353C248.21 121.305 255.816 113.882 264.982 108.911L264.982 108.911Z" fill="black"/>
</g>
</g>
<defs>
<clipPath id="clip0">
<rect width="477" height="403" fill="white"/>
</clipPath>
</defs>
</svg>
