<svg width="393" height="286" viewBox="0 0 393 286" fill="none" xmlns="http://www.w3.org/2000/svg">
<path d="M331.953 129.285L293.397 124.519L295.51 90.6271H331.953V129.285Z" fill="#FFB6B6"/>
<path d="M353.891 170.699C353.286 170.698 352.694 170.519 352.188 170.184C351.682 169.85 351.286 169.375 351.046 168.817L345.692 156.293L361.561 156.348L372.464 144.787L377.693 157.029C378.009 157.779 378.021 158.623 377.724 159.382C377.428 160.14 376.846 160.752 376.106 161.085L355.147 170.429C354.752 170.607 354.324 170.698 353.891 170.699Z" fill="#E6E6E6"/>
<path d="M359.15 157.927C359.018 157.927 358.886 157.923 358.754 157.915L346.003 157.192L345.658 156.416L345.899 156.308L372.419 144.467L372.765 145.244L364.651 155.296C363.987 156.117 363.149 156.779 362.197 157.234C361.245 157.689 360.205 157.926 359.15 157.927Z" fill="#CCCCCC"/>
<path d="M336.694 41.9782L299.05 42.4501C298.344 42.4492 297.666 42.1674 297.167 41.6665C296.667 41.1655 296.386 40.4864 296.385 39.7779V27.3066C296.385 22.0304 298.476 16.9702 302.197 13.2393C305.917 9.50847 310.964 7.41248 316.226 7.41248C321.489 7.41248 326.535 9.50847 330.256 13.2393C333.977 16.9702 336.067 22.0304 336.067 27.3066L339.36 39.3061C339.359 40.0145 339.078 40.6937 338.578 41.1947C338.079 41.6956 337.401 41.9774 336.695 41.9782H336.694Z" fill="#515151"/>
<path d="M355.124 152.863C354.498 152.294 354.004 151.595 353.676 150.814C353.348 150.033 353.195 149.19 353.228 148.343C353.26 147.497 353.477 146.668 353.864 145.915C354.251 145.161 354.797 144.502 355.466 143.984L348.917 124.466L359.235 127.2L363.874 145.315C364.673 146.498 365.01 147.934 364.821 149.351C364.633 150.767 363.932 152.064 362.852 152.996C361.772 153.928 360.388 154.429 358.963 154.405C357.538 154.38 356.172 153.832 355.124 152.863V152.863Z" fill="#FFB6B6"/>
<path d="M310.49 278.409L302.763 277.153L303.921 246.672L315.325 248.526L310.49 278.409Z" fill="#FFB6B6"/>
<path d="M348.999 262.25L342.011 265.785L323.5 238.852L333.814 233.634L348.999 262.25Z" fill="#FFB6B6"/>
<path d="M316.062 42.3207C323.651 42.3207 329.803 36.1524 329.803 28.5435C329.803 20.9346 323.651 14.7664 316.062 14.7664C308.474 14.7664 302.322 20.9346 302.322 28.5435C302.322 36.1524 308.474 42.3207 316.062 42.3207Z" fill="#FFB8B8"/>
<path d="M326.942 252.457L294.762 170.181C283.245 138.638 293.535 116.898 293.641 116.682L293.694 116.576L293.803 116.536C295.125 121.693 325.087 121.342 331.953 113.398C335.961 116.774 341.294 124.721 342.437 134.219C343.631 144.407 342.726 154.733 339.776 164.557L327.101 207.642L342.783 243.065L326.942 252.457Z" fill="black"/>
<path d="M311.424 201.423L299.805 260.499L315.28 263.425L325.016 212.289L311.424 201.423Z" fill="black"/>
<path d="M294.454 100.689C296.93 101.352 321.4 111.462 333.009 101.218L342.119 56.1185L331.205 52.6668L327.396 48.0227C326.984 47.5191 326.463 47.1151 325.874 46.8408C325.284 46.5665 324.641 46.4288 323.991 46.4382L310.451 46.6197C309.852 46.6285 309.262 46.7613 308.716 47.0098C308.171 47.2583 307.683 47.6172 307.282 48.0638L302.945 52.9135L293.148 55.1995L294.454 100.689Z" fill="#0C5543"/>
<path d="M337.965 59.6363L340.931 55.6758C340.931 55.6758 346.366 57.1076 349.127 64.916C351.888 72.7245 363.201 135.111 363.201 135.111L351.018 140.783L334.521 85.6464L337.965 59.6363Z" fill="#0C5543"/>
<path d="M240.34 133.932C240.455 133.093 240.752 132.289 241.21 131.577C241.669 130.866 242.277 130.263 242.993 129.813C243.709 129.363 244.514 129.075 245.352 128.971C246.191 128.866 247.042 128.947 247.846 129.208L260.228 112.779L263.794 122.865L251.488 136.92C250.964 138.247 249.971 139.335 248.698 139.977C247.426 140.618 245.963 140.769 244.588 140.4C243.212 140.032 242.019 139.169 241.236 137.977C240.453 136.784 240.134 135.345 240.339 133.932H240.34Z" fill="#FFB6B6"/>
<path d="M297.501 58.7621L293.398 55.1462C293.398 55.1462 289.1 56.2334 286.339 64.0418C283.578 71.8503 248.334 124.2 248.334 124.2L260.517 129.872L300.946 84.7701L297.501 58.7621Z" fill="#0C5543"/>
<path d="M330.38 27.6348H311.175C310.814 27.6344 310.466 27.5021 310.195 27.2627C309.925 27.0232 309.751 26.6931 309.706 26.3342L309.457 24.3398C309.433 24.1482 309.347 23.9697 309.213 23.8311C309.079 23.6926 308.903 23.6015 308.713 23.5716C308.523 23.5417 308.328 23.5747 308.158 23.6655C307.988 23.7563 307.852 23.9 307.771 24.075L306.511 26.7779C306.391 27.0334 306.202 27.2495 305.964 27.4011C305.727 27.5527 305.451 27.6336 305.169 27.6343H302.252C301.86 27.6348 301.484 27.4792 301.206 27.2015C300.928 26.9238 300.772 26.5469 300.771 26.1537C300.771 26.105 300.774 26.0564 300.778 26.0079L301.929 13.9609C301.953 13.7033 302.044 13.4565 302.192 13.2446C302.34 13.0327 302.541 12.8629 302.774 12.7519C311.569 8.63504 320.489 8.64033 329.284 12.7678C329.507 12.873 329.7 13.0322 329.847 13.2312C329.993 13.4302 330.087 13.6626 330.121 13.9074L331.845 25.9386C331.875 26.1492 331.86 26.3639 331.8 26.568C331.74 26.7722 331.637 26.9611 331.498 27.1218C331.359 27.2826 331.187 27.4115 330.994 27.4997C330.801 27.5879 330.591 27.6335 330.379 27.6332L330.38 27.6348Z" fill="#515151"/>
<path d="M20.5827 9.53003C19.9148 9.52933 19.2739 9.79425 18.8005 10.2667C18.3271 10.7391 18.06 11.3805 18.0576 12.0502L17.437 282.361C17.4363 283.03 17.7005 283.673 18.1717 284.148C18.6429 284.622 19.2826 284.89 19.9505 284.893L237.134 285.394C237.802 285.394 238.443 285.129 238.916 284.657C239.389 284.184 239.657 283.543 239.659 282.873L240.279 12.5623C240.28 11.8925 240.016 11.2498 239.545 10.7752C239.073 10.3005 238.433 10.0327 237.765 10.0305L20.5827 9.53003Z" fill="#E6E6E6"/>
<path d="M28.6285 17.6329C27.9606 17.6322 27.3197 17.8971 26.8463 18.3696C26.373 18.842 26.1058 19.4834 26.1034 20.1531L25.5225 274.296C25.5218 274.965 25.786 275.608 26.2572 276.082C26.7284 276.557 27.368 276.825 28.0359 276.827L229.094 277.291C229.762 277.292 230.403 277.027 230.876 276.555C231.35 276.082 231.617 275.441 231.619 274.771L232.2 20.6287C232.201 19.9589 231.937 19.3162 231.465 18.8415C230.994 18.3669 230.354 18.0991 229.686 18.0968L28.6285 17.6329Z" fill="white"/>
<path d="M202.977 127.992L54.83 127.65C53.8353 127.636 52.8861 127.23 52.1884 126.519C51.4907 125.808 51.1007 124.85 51.103 123.852C51.1053 122.855 51.4997 121.898 52.2007 121.191C52.9016 120.483 53.8526 120.081 54.8474 120.071L202.994 120.414C203.989 120.427 204.938 120.834 205.636 121.545C206.333 122.256 206.723 123.214 206.721 124.211C206.719 125.209 206.324 126.165 205.623 126.873C204.923 127.581 203.972 127.983 202.977 127.992V127.992Z" fill="#E6E6E6"/>
<path d="M204.411 57.3852L106.125 57.1586C104.74 57.1554 103.622 55.456 103.626 53.3632C103.631 51.2704 104.758 49.5763 106.143 49.5795L204.429 49.8061C205.813 49.8093 206.932 51.5087 206.927 53.6015C206.923 55.6944 205.796 57.3905 204.411 57.3852Z" fill="#E6E6E6"/>
<path d="M204.361 79.1112L106.075 78.8846C104.691 78.8814 103.572 77.182 103.577 75.0892C103.581 72.9963 104.708 71.3022 106.093 71.3054L204.379 71.5321C205.764 71.5353 206.882 73.2346 206.878 75.3275C206.873 77.4203 205.746 79.1144 204.361 79.1112Z" fill="#E6E6E6"/>
<path d="M202.919 152.496L54.7719 152.155C53.7772 152.141 52.828 151.734 52.1303 151.023C51.4326 150.312 51.0426 149.354 51.0449 148.357C51.0472 147.359 51.4416 146.403 52.1426 145.695C52.8435 144.987 53.7945 144.585 54.7893 144.576L202.936 144.917C203.938 144.908 204.903 145.299 205.619 146.003C206.334 146.707 206.741 147.667 206.75 148.672C206.76 149.677 206.37 150.644 205.668 151.362C204.966 152.079 204.008 152.487 203.006 152.496C202.977 152.497 202.948 152.497 202.919 152.496Z" fill="#E6E6E6"/>
<path d="M202.866 177.001L54.7191 176.659C53.7244 176.645 52.7753 176.238 52.0776 175.527C51.3799 174.816 50.9899 173.858 50.9922 172.861C50.9945 171.863 51.3889 170.907 52.0898 170.199C52.7908 169.491 53.7418 169.089 54.7365 169.08L202.883 169.422C203.38 169.417 203.873 169.509 204.334 169.695C204.795 169.881 205.215 170.156 205.57 170.504C205.925 170.853 206.208 171.268 206.403 171.727C206.597 172.185 206.7 172.678 206.705 173.176C206.709 173.674 206.616 174.168 206.43 174.63C206.244 175.092 205.969 175.513 205.621 175.868C205.273 176.223 204.858 176.506 204.4 176.701C203.943 176.895 203.452 176.997 202.955 177.001C202.925 177.001 202.895 177.001 202.866 177.001V177.001Z" fill="#E6E6E6"/>
<path d="M202.808 201.506L54.6615 201.164C53.6668 201.15 52.7177 200.743 52.02 200.032C51.3223 199.321 50.9323 198.363 50.9346 197.366C50.9369 196.368 51.3313 195.412 52.0322 194.704C52.7332 193.996 53.6842 193.594 54.6789 193.585L202.826 193.927C203.827 193.919 204.791 194.31 205.506 195.013C206.22 195.717 206.627 196.677 206.636 197.681C206.646 198.685 206.257 199.652 205.556 200.369C204.855 201.086 203.899 201.495 202.897 201.506C202.868 201.506 202.838 201.506 202.808 201.506Z" fill="#E6E6E6"/>
<path d="M129.867 224.951L54.6053 224.609C53.6107 224.595 52.6615 224.189 51.9638 223.478C51.2661 222.767 50.8761 221.809 50.8784 220.811C50.8807 219.814 51.2751 218.857 51.9761 218.15C52.677 217.442 53.628 217.04 54.6228 217.031L129.885 217.373C130.886 217.365 131.849 217.756 132.563 218.459C133.277 219.163 133.684 220.122 133.693 221.126C133.703 222.13 133.314 223.097 132.614 223.814C131.913 224.531 130.957 224.94 129.956 224.951C129.926 224.952 129.897 224.952 129.867 224.951Z" fill="#E6E6E6"/>
<path d="M129.811 249.456L54.5492 249.114C53.5545 249.1 52.6054 248.694 51.9077 247.983C51.21 247.272 50.82 246.314 50.8223 245.316C50.8246 244.319 51.219 243.363 51.9199 242.655C52.6209 241.947 53.5719 241.545 54.5666 241.536L129.828 241.878C130.83 241.87 131.793 242.261 132.507 242.965C133.221 243.668 133.627 244.628 133.637 245.631C133.646 246.635 133.258 247.602 132.557 248.319C131.857 249.036 130.901 249.445 129.9 249.457C129.87 249.457 129.841 249.457 129.811 249.456Z" fill="#E6E6E6"/>
<path d="M171.92 28.456V10.4255C171.949 9.08615 171.715 7.75415 171.231 6.50552C170.747 5.2569 170.022 4.11609 169.099 3.14822C168.175 2.18036 167.07 1.4044 165.847 0.864651C164.624 0.324902 163.308 0.0319304 161.972 0.00246757C160.636 -0.0269952 159.308 0.207631 158.062 0.69294C156.817 1.17825 155.679 1.90474 154.714 2.83093C153.749 3.75713 152.975 4.86489 152.437 6.09097C151.898 7.31705 151.606 8.63744 151.577 9.97674H153.815C153.895 7.92111 154.765 5.97618 156.243 4.54905C157.721 3.12191 159.692 2.32322 161.743 2.32014H161.86C163.966 2.35399 165.973 3.22488 167.44 4.74151C168.907 6.25813 169.713 8.29644 169.681 10.4087V28.6C169.663 30.0035 169.094 31.3434 168.098 32.33C167.103 33.3166 165.76 33.8706 164.36 33.8725H164.294C162.881 33.8528 161.533 33.2713 160.547 32.2557C159.562 31.2402 159.018 29.8738 159.037 28.4568L159.049 10.5476C159.047 9.8346 159.327 9.14988 159.828 8.64407C160.329 8.13826 161.01 7.85278 161.722 7.85045C162.433 7.84811 163.115 8.12911 163.62 8.63162C164.124 9.13413 164.409 9.817 164.411 10.53V15.7332C164.411 16.0309 164.529 16.3163 164.739 16.5268C164.949 16.7373 165.234 16.8555 165.531 16.8555C165.828 16.8555 166.112 16.7373 166.322 16.5268C166.532 16.3163 166.65 16.0309 166.65 15.7332V10.5122C166.649 9.86449 166.521 9.22333 166.272 8.62534C166.024 8.02736 165.661 7.48425 165.203 7.02703C164.746 6.56982 164.203 6.20745 163.606 5.96061C163.008 5.71377 162.368 5.5873 161.722 5.58841C161.076 5.58953 160.437 5.7182 159.841 5.9671C159.244 6.216 158.703 6.58026 158.247 7.03905C157.791 7.49784 157.429 8.0422 157.183 8.64104C156.937 9.23988 156.811 9.88146 156.812 10.5292L156.8 28.4424C156.778 30.4523 157.552 32.3889 158.952 33.8273C160.352 35.2658 162.264 36.0886 164.269 36.1152H164.362C166.351 36.1121 168.259 35.3244 169.674 33.9221C171.088 32.5199 171.896 30.6159 171.921 28.6216C171.92 28.5638 171.92 28.5051 171.92 28.456Z" fill="#6C63FF"/>
<path d="M202.555 233.472C202.559 236.458 202.028 239.42 200.987 242.217C200.515 243.499 199.935 244.738 199.255 245.921C197.067 249.749 193.91 252.93 190.103 255.142C186.296 257.354 181.974 258.519 177.574 258.519C173.174 258.519 168.852 257.354 165.045 255.142C161.238 252.93 158.081 249.749 155.893 245.921C155.671 245.536 155.461 245.146 155.263 244.749C153.565 241.372 152.651 237.652 152.592 233.871C152.532 230.089 153.327 226.342 154.917 222.912C156.507 219.482 158.852 216.458 161.774 214.066C164.697 211.675 168.121 209.978 171.791 209.102C175.461 208.227 179.281 208.197 182.965 209.013C186.648 209.83 190.099 211.472 193.059 213.817C196.019 216.162 198.411 219.148 200.056 222.552C201.701 225.956 202.555 229.69 202.555 233.472H202.555Z" fill="#E4E4E4"/>
<path d="M178.873 237.701C181.51 237.701 183.648 235.557 183.648 232.912C183.648 230.267 181.51 228.123 178.873 228.123C176.235 228.123 174.097 230.267 174.097 232.912C174.097 235.557 176.235 237.701 178.873 237.701Z" fill="#FFB344"/>
<path d="M155.263 244.749C157.367 242.469 160.18 238.849 162.818 241.465C164.142 242.699 166.215 245.756 168.198 243.757L183.688 228.226C183.98 227.937 184.326 227.71 184.707 227.557C185.087 227.405 185.494 227.33 185.904 227.337C186.314 227.345 186.718 227.434 187.092 227.6C187.467 227.766 187.805 228.006 188.086 228.305L200.987 242.218C200.515 243.499 199.935 244.738 199.255 245.922H155.893L155.263 244.749Z" fill="#6AAF50"/>
<path d="M90.5868 63.4818C90.5905 66.4675 90.0595 69.4297 89.0191 72.2272C88.5466 73.5086 87.967 74.7477 87.2865 75.9312C85.0987 79.759 81.9416 82.9397 78.1346 85.1517C74.3276 87.3637 70.0056 88.5286 65.6055 88.5286C61.2055 88.5286 56.8835 87.3637 53.0764 85.1517C49.2694 82.9397 46.1124 79.759 43.9246 75.9312C43.7031 75.5462 43.4931 75.1555 43.2945 74.759C41.5964 71.3815 40.6831 67.6622 40.6233 63.8803C40.5634 60.0983 41.3584 56.3519 42.9488 52.922C44.5391 49.4921 46.8835 46.4679 49.8059 44.0762C52.7284 41.6844 56.1531 39.9873 59.8231 39.1122C63.4931 38.2371 67.3131 38.2066 70.9965 39.0231C74.6799 39.8396 78.1311 41.4818 81.0911 43.8266C84.0511 46.1714 86.4431 49.1579 88.0877 52.562C89.7323 55.9661 90.5867 59.6994 90.5868 63.4818H90.5868Z" fill="#E4E4E4"/>
<path d="M66.9043 67.7104C69.542 67.7104 71.6803 65.5665 71.6803 62.9217C71.6803 60.277 69.542 58.1331 66.9043 58.1331C64.2667 58.1331 62.1284 60.277 62.1284 62.9217C62.1284 65.5665 64.2667 67.7104 66.9043 67.7104Z" fill="#FFB344"/>
<path d="M43.2944 74.759C45.3987 72.4788 48.2117 68.8588 50.85 71.4745C52.174 72.7083 54.2462 75.7658 56.2299 73.767L71.72 58.2355C72.0116 57.9468 72.3578 57.7195 72.7383 57.5669C73.1187 57.4143 73.5258 57.3395 73.9355 57.3468C74.3452 57.3542 74.7494 57.4436 75.1241 57.6097C75.4989 57.7759 75.8368 58.0155 76.1179 58.3145L89.0189 72.2272C88.5464 73.5085 87.9668 74.7476 87.2863 75.9312H43.9245L43.2944 74.759Z" fill="#6AAF50"/>
<path d="M163.472 31.8453C164.93 31.8453 166.113 30.6599 166.113 29.1975C166.113 27.7352 164.93 26.5497 163.472 26.5497C162.013 26.5497 160.831 27.7352 160.831 29.1975C160.831 30.6599 162.013 31.8453 163.472 31.8453Z" fill="#6C63FF"/>
<path d="M314.457 285.507H309.431L308.534 280.749L306.236 285.507H292.905C292.266 285.507 291.644 285.302 291.129 284.923C290.614 284.543 290.234 284.008 290.044 283.397C289.854 282.785 289.864 282.128 290.072 281.523C290.28 280.917 290.676 280.394 291.202 280.03L301.848 272.658V267.848L313.045 268.518L314.457 285.507Z" fill="#393019"/>
<path d="M358.995 273.712L354.773 276.446L351.445 272.936L352.089 278.183L340.889 285.434C340.353 285.782 339.719 285.948 339.081 285.909C338.443 285.87 337.835 285.628 337.344 285.217C336.853 284.807 336.506 284.25 336.354 283.628C336.201 283.006 336.251 282.351 336.496 281.759L341.451 269.776L338.848 265.735L348.617 260.207L358.995 273.712Z" fill="#393019"/>
<path d="M393 284.941H0V286H393V284.941Z" fill="#CCCCCC"/>
</svg>
